HIERARCHY
ROOT Hips
{
	OFFSET -3.958830 18.904000 13.208200
	CHANNELS 6 Xposition Yposition Zposition Zrotation Yrotation Xrotation 
	JOINT LHipJoint
	{
		OFFSET 0.000000 0.000000 0.000000
		CHANNELS 3 Zrotation Yrotation Xrotation
		JOINT LeftUpLeg
		{
			OFFSET 1.800000 -1.400000 0.085000
			CHANNELS 3 Zrotation Yrotation Xrotation
			JOINT LeftLeg
			{
				OFFSET 2.215000 -6.000000 0.000000
				CHANNELS 3 Zrotation Yrotation Xrotation
				JOINT LeftFoot
				{
					OFFSET 2.500000 -6.900000 0.000000
					CHANNELS 3 Zrotation Yrotation Xrotation
					JOINT LeftToeBase
					{
						OFFSET 0.200000 -0.500000 1.950000
						CHANNELS 3 Zrotation Yrotation Xrotation
						End Site
						{
							OFFSET 0.000000 0.000000 0.000000
						}
					}
				}
			}
		}
	}
	JOINT RHipJoint
	{
		OFFSET 0.000000 0.000000 0.000000
		CHANNELS 3 Zrotation Yrotation Xrotation
		JOINT RightUpLeg
		{
			OFFSET -1.800000 -1.400000 0.085000
			CHANNELS 3 Zrotation Yrotation Xrotation
			JOINT RightLeg
			{
				OFFSET -2.215000 -6.000000 0.000000
				CHANNELS 3 Zrotation Yrotation Xrotation
				JOINT RightFoot
				{
					OFFSET -2.500000 -6.900000 0.000000
					CHANNELS 3 Zrotation Yrotation Xrotation
					JOINT RightToeBase
					{
						OFFSET -0.200000 -0.500000 1.950000
						CHANNELS 3 Zrotation Yrotation Xrotation
						End Site
						{
							OFFSET 0.000000 0.000000 0.000000
						}
					}
				}
			}
		}
	}
	JOINT LowerBack
	{
		OFFSET 0.000000 0.000000 0.000000
		CHANNELS 3 Zrotation Yrotation Xrotation
		JOINT Spine
		{
			OFFSET -0.087000 1.940000 -0.288900
			CHANNELS 3 Zrotation Yrotation Xrotation
			JOINT Spine1
			{
				OFFSET 0.000000 1.950000 0.060000
				CHANNELS 3 Zrotation Yrotation Xrotation
				JOINT Neck
				{
					OFFSET 0.000000 0.000000 0.000000
					CHANNELS 3 Zrotation Yrotation Xrotation
					JOINT Neck1
					{
						OFFSET 0.000000 1.600000 0.340000
						CHANNELS 3 Zrotation Yrotation Xrotation
						JOINT Head
						{
							OFFSET 0.000000 1.667000 -0.240000
							CHANNELS 3 Zrotation Yrotation Xrotation
							End Site
							{
								OFFSET 0.000000 0.000000 0.000000
							}
						}
					}
				}
				JOINT LeftShoulder
				{
					OFFSET 0.000000 0.000000 0.000000
					CHANNELS 3 Zrotation Yrotation Xrotation
					JOINT LeftArm
					{
						OFFSET 2.700000 1.550000 -0.730000
						CHANNELS 3 Zrotation Yrotation Xrotation
						JOINT LeftForeArm
						{
							OFFSET 5.450000 0.000000 0.000000
							CHANNELS 3 Zrotation Yrotation Xrotation
							JOINT LeftHand
							{
								OFFSET 3.450000 0.000000 0.000000
								CHANNELS 3 Zrotation Yrotation Xrotation
								JOINT LeftHandIndex1
								{
									OFFSET 0.750000 0.000000 0.000000
									CHANNELS 3 Zrotation Yrotation Xrotation
									End Site
									{
										OFFSET 0.000000 0.000000 0.000000
									}
								}
							}
						}
					}
				}
				JOINT RightShoulder
				{
					OFFSET 0.000000 0.000000 0.000000
					CHANNELS 3 Zrotation Yrotation Xrotation
					JOINT RightArm
					{
						OFFSET -2.700000 1.550000 -0.730000
						CHANNELS 3 Zrotation Yrotation Xrotation
						JOINT RightForeArm
						{
							OFFSET -5.450000 0.000000 0.000000
							CHANNELS 3 Zrotation Yrotation Xrotation
							JOINT RightHand
							{
								OFFSET -3.450000 0.000000 0.000000
								CHANNELS 3 Zrotation Yrotation Xrotation
								JOINT RightHandIndex1
								{
									OFFSET -0.750000 0.000000 0.000000
									CHANNELS 3 Zrotation Yrotation Xrotation
									End Site
									{
										OFFSET 0.000000 0.000000 0.000000
									}
								}
							}
						}
					}
				}
			}
		}
	}
}
MOTION
Frames: 7
Frame Time: 0.016667
-0.111250 16.888210 -0.036560 -2.070147 -3.492555 4.361949 -14.910082 12.936624 2.653679 4.220380 -1.279254 -11.478109 -8.180015 6.187982 12.994280 0.005513 4.113661 3.357647 0.060850 -0.283100 0.168050 18.528507 -11.414258 2.615100 -3.682168 0.893566 -12.847745 7.929326 -5.849966 16.682494 0.033652 -3.943591 3.105599 -0.127540 0.419880 0.239150 -4.268226 -0.109043 -6.615568 10.669838 1.223982 1.081699 -4.695540 1.027467 4.021060 2.288802 -0.664066 -7.142097 -1.682158 -0.418868 28.371116 -3.035620 0.644760 7.451710 -23.624791 -6.332231 2.705209 -56.460335 -5.259421 -1.613400 -10.705682 -8.281269 -0.245552 -4.086691 3.173032 -0.078380 0.361540 -0.319860 0.127260 18.837940 7.453560 4.024729 63.285744 3.719724 -4.822694 8.732424 12.334061 -0.681233 2.614080 -1.604267 -0.098990 -0.089550 -0.048580 -0.027000 
-0.112600 16.889070 -0.036110 -2.074334 -3.443856 4.345355 -14.909660 12.935832 2.653207 4.271959 -1.274739 -11.473280 -8.225317 6.208314 13.022639 0.010476 4.116163 3.354583 0.064150 -0.276590 0.171160 18.528853 -11.415783 2.616635 -3.639475 0.872701 -12.768785 7.874742 -5.821654 16.572671 0.031583 -3.932625 3.112218 -0.126830 0.415140 0.238360 -4.269437 -0.104479 -6.618665 10.663388 1.212503 1.094266 -4.691612 1.009736 4.003651 2.301853 -0.609963 -7.123699 -1.607038 -0.445953 28.522432 -3.053680 0.663540 7.395220 -23.650274 -6.295916 2.697456 -56.390199 -5.231442 -1.609617 -10.897989 -8.241272 -0.232738 -4.083548 3.170932 -0.078340 0.359290 -0.315240 0.127170 18.838164 7.379670 3.987610 63.274225 3.749026 -4.775878 8.805607 12.239810 -0.669038 2.616627 -1.601321 -0.094950 -0.089600 -0.051890 -0.026420 
-0.115730 16.889280 -0.034610 -2.052241 -3.309571 4.353076 -14.910363 12.932060 2.651773 4.317204 -1.281944 -11.528213 -8.263176 6.229171 13.094367 0.011182 4.117763 3.350191 0.071210 -0.265080 0.177840 18.528969 -11.419367 2.616354 -3.564398 0.850627 -12.702944 7.748384 -5.771813 16.466658 0.029158 -3.915301 3.118482 -0.121620 0.408690 0.237770 -4.269530 -0.092145 -6.617073 10.608326 1.199399 1.111826 -4.699676 0.989714 3.963971 2.308692 -0.506197 -7.033773 -1.433401 -0.561950 28.582240 -3.068120 0.615240 7.184660 -23.657741 -6.089872 2.625199 -56.192414 -5.192238 -1.626681 -11.354345 -8.297081 -0.207570 -4.079928 3.168917 -0.077830 0.356130 -0.308880 0.126580 18.833932 7.093658 3.859837 63.327818 3.783952 -4.720077 8.885447 12.110498 -0.662032 2.619436 -1.597668 -0.090940 -0.088010 -0.056330 -0.026350 
-0.118660 16.887960 -0.035800 -1.991311 -3.134286 4.402873 -14.913647 12.929448 2.650266 4.284911 -1.315726 -11.702589 -8.226469 6.243265 13.282458 0.000787 4.123446 3.347154 0.071560 -0.264000 0.182870 18.526280 -11.422636 2.614573 -3.526165 0.861905 -12.790845 7.679661 -5.758889 16.532044 0.033128 -3.909150 3.121088 -0.115950 0.409490 0.235520 -4.262755 -0.082065 -6.611596 10.487011 1.161046 1.150108 -4.701567 0.950900 3.938022 2.324729 -0.361313 -6.918461 -1.168169 -0.745276 28.482189 -3.211560 0.583080 7.040630 -23.651270 -5.862072 2.537568 -55.935523 -5.173635 -1.668574 -11.862067 -8.521838 -0.177719 -4.084497 3.161663 -0.078130 0.360060 -0.310040 0.124040 18.803759 6.751606 3.695921 63.393719 3.876683 -4.648386 8.936083 12.014636 -0.662640 2.617377 -1.593081 -0.096170 -0.081520 -0.055720 -0.030110 
-0.121370 16.886460 -0.036090 -1.952412 -3.108773 4.456435 -14.913798 12.920551 2.649936 4.270707 -1.338948 -11.804403 -8.237764 6.255708 13.388553 -0.010216 4.126135 3.340866 0.080330 -0.256020 0.195740 18.526066 -11.427108 2.616099 -3.566133 0.874355 -12.859362 7.747112 -5.777315 16.538933 0.030137 -3.909504 3.117524 -0.109500 0.401050 0.236790 -4.262516 -0.056914 -6.610540 10.422285 1.172325 1.196577 -4.703649 0.957734 3.893478 2.362237 -0.201483 -6.798294 -0.885231 -0.938661 28.484254 -3.382710 0.572820 6.760510 -23.721932 -5.606852 2.439738 -55.622021 -5.108184 -1.741147 -12.371174 -8.833833 -0.145638 -4.082820 3.159858 -0.072990 0.358440 -0.305410 0.119710 18.804730 6.384803 3.531507 63.378810 3.947973 -4.568469 9.039812 11.907881 -0.655158 2.614856 -1.590020 -0.095860 -0.080970 -0.057470 -0.036810 
-0.124650 16.884900 -0.036750 -1.890752 -3.055470 4.561710 -14.916790 12.908642 2.648912 4.212643 -1.379603 -11.991607 -8.219438 6.260758 13.540313 -0.028280 4.128186 3.337723 0.089490 -0.247770 0.209660 18.524390 -11.428819 2.617552 -3.595024 0.886169 -12.958420 7.797684 -5.775369 16.458403 0.029456 -3.902859 3.118267 -0.099550 0.396770 0.237380 -4.256608 -0.031218 -6.604528 10.306045 1.183359 1.234156 -4.674435 0.958911 3.837040 2.412101 -0.006571 -6.628874 -0.523261 -1.194827 28.337164 -3.679300 0.591950 6.441070 -23.763865 -5.240289 2.275595 -55.312189 -5.129763 -1.763629 -12.925719 -9.133042 -0.105820 -4.086339 3.153898 -0.067900 0.361160 -0.303020 0.117570 18.760279 5.873910 3.320731 63.402892 4.014530 -4.502388 9.193783 11.884251 -0.655176 2.607523 -1.587823 -0.100300 -0.075660 -0.059770 -0.044930 
-0.127800 16.884140 -0.036760 -1.878781 -3.020204 4.692903 -14.916043 12.892377 2.643982 4.176798 -1.429280 -12.212302 -8.167845 6.258032 13.728182 -0.050754 4.126607 3.334462 0.105350 -0.232380 0.228930 18.527225 -11.430088 2.623419 -3.595215 0.893331 -13.030950 7.912025 -5.776972 16.303710 0.024500 -3.896906 3.114976 -0.084370 0.388520 0.238300 -4.262682 0.004075 -6.596824 10.311230 1.175053 1.267641 -4.697023 0.938580 3.751008 2.471788 0.160958 -6.400096 -0.200606 -1.469981 28.155258 -3.993670 0.583960 6.000070 -23.857316 -4.743085 2.037728 -54.963741 -5.203481 -1.740251 -13.484782 -9.381415 -0.061886 -4.086976 3.149302 -0.060150 0.360780 -0.297540 0.116430 18.737276 5.235131 3.057653 63.379779 4.101594 -4.388001 9.409207 11.796985 -0.652359 2.601442 -1.588093 -0.104440 -0.070770 -0.065790 -0.053990 
